<?xml version="1.0" standalone="no"?>
<!DOCTYPE svg PUBLIC "-//W3C//DTD SVG 20010904//EN"
 "http://www.w3.org/TR/2001/REC-SVG-20010904/DTD/svg10.dtd">
<svg version="1.0" xmlns="http://www.w3.org/2000/svg"
 width="250.000000pt" height="322.000000pt" viewBox="0 0 250.000000 322.000000"
 preserveAspectRatio="xMidYMid meet">

<g transform="translate(0.000000,322.000000) scale(0.100000,-0.100000)"
fill="#000000" stroke="none">
<path d="M1220 3179 c-167 -152 -500 -304 -784 -358 -118 -23 -282 -41 -372
-41 -35 0 -64 -3 -64 -6 0 -4 23 -57 51 -118 73 -159 125 -293 165 -430 160
-548 111 -1118 -143 -1681 -30 -66 -57 -126 -60 -132 -4 -10 28 -13 142 -13
376 0 717 -107 995 -310 52 -39 100 -73 107 -76 6 -3 40 17 75 44 283 219 720
371 1071 372 48 0 87 4 87 8 0 4 -25 58 -55 120 -311 630 -354 1269 -123 1851
34 86 125 271 164 332 14 23 22 45 17 49 -4 4 -71 12 -148 18 -423 35 -763
157 -1015 366 -30 26 -57 46 -60 46 -3 -1 -25 -19 -50 -41z m102 -26 c236
-199 595 -329 1006 -365 l138 -12 -86 -170 c-135 -270 -205 -511 -231 -801
-35 -388 62 -848 262 -1247 27 -54 49 -99 49 -101 0 -2 -53 -7 -117 -10 -352
-17 -741 -158 -1015 -365 l-63 -48 -82 61 c-289 212 -638 325 -1007 325 l-135
0 35 78 c292 635 331 1252 120 1859 -36 103 -112 287 -147 355 -10 21 -19 39
-19 41 0 2 53 7 118 10 205 12 417 55 602 124 166 61 377 180 477 269 21 18
41 33 45 34 3 0 26 -16 50 -37z"/>
<path d="M1225 3103 c-53 -48 -204 -147 -285 -188 -221 -111 -450 -169 -753
-191 -76 -5 -88 -8 -84 -22 3 -10 31 -75 63 -147 158 -362 222 -677 211 -1040
-10 -325 -88 -652 -223 -944 -24 -52 -44 -98 -44 -102 0 -5 55 -9 121 -9 355
0 698 -115 964 -324 l69 -54 46 38 c60 50 199 140 278 179 218 110 456 174
698 187 l111 7 -57 121 c-267 559 -317 1140 -144 1661 42 127 114 293 167 383
20 35 37 67 37 71 0 5 -35 12 -77 15 -444 38 -743 144 -993 350 -30 26 -57 46
-60 46 -3 -1 -23 -17 -45 -37z m35 -362 c0 -22 3 -46 6 -55 4 -12 0 -16 -16
-16 -16 0 -20 4 -16 16 3 9 6 33 6 55 0 21 5 39 10 39 6 0 10 -18 10 -39z m30
-122 c30 -58 22 -85 -10 -37 -14 21 -27 38 -30 38 -3 0 -16 -17 -30 -38 -18
-27 -25 -33 -28 -20 -5 28 36 98 58 98 13 0 27 -14 40 -41z m-10 -57 c14 -20
27 -40 28 -44 2 -5 -24 -8 -57 -8 -34 0 -61 3 -61 6 0 8 54 84 60 84 3 0 16
-17 30 -38z m35 -72 c4 -6 -20 -10 -64 -10 -41 0 -71 4 -71 10 0 6 28 10 64
10 36 0 68 -4 71 -10z m0 -30 c4 -6 1 -17 -5 -25 -9 -10 -9 -19 -2 -27 6 -8
12 -293 16 -773 6 -652 4 -757 -8 -742 -11 14 -15 145 -21 746 -4 400 -4 738
0 751 5 15 4 20 -4 16 -6 -4 -16 2 -23 14 -16 25 -25 25 -33 0 -3 -11 -9 -20
-13 -20 -13 1 -43 50 -37 60 8 13 122 13 130 0z m-54 -52 c5 -60 -4 -1519 -9
-1520 -9 -4 -26 1474 -18 1507 7 26 25 34 27 13z m-271 -183 c-1 -49 -5 -121
-10 -160 -6 -38 -13 -90 -16 -115 -5 -41 10 -110 22 -98 2 3 0 17 -5 31 -9 22
-7 29 12 42 12 8 25 15 29 15 3 0 8 -39 10 -87 4 -76 10 -101 46 -186 23 -54
42 -107 42 -118 0 -28 -49 -25 -91 5 -47 34 -149 96 -157 96 -3 0 16 -22 43
-50 27 -27 55 -50 62 -50 7 0 13 -4 13 -10 0 -31 -95 16 -159 77 -42 40 -51
56 -51 84 0 19 -5 41 -11 49 -7 11 -8 4 -4 -25 5 -40 5 -40 -5 -7 -6 18 -15
30 -19 27 -5 -2 -14 2 -21 10 -7 8 -37 22 -66 31 -67 19 -75 30 -21 27 l42 -2
-47 11 c-27 5 -48 15 -48 20 0 6 13 7 31 3 22 -5 29 -4 25 4 -4 6 -19 11 -34
12 l-27 1 25 7 25 7 -25 8 c-24 7 -24 8 -5 16 l20 9 -20 1 c-20 1 -20 2 -1 9
19 7 18 8 -5 15 -23 7 -23 8 -4 16 l20 9 -20 0 c-17 1 -17 3 -5 11 10 6 11 10
2 10 -6 0 -11 3 -10 8 1 4 -6 33 -16 65 -33 110 1 90 98 -55 39 -59 74 -107
78 -107 4 -1 -2 15 -14 35 -17 30 -20 45 -14 96 11 112 87 233 157 251 28 7
24 -7 -25 -97 -56 -102 -63 -138 -36 -191 11 -22 17 -30 14 -18 -4 19 -2 22
13 16 16 -5 15 -3 -3 18 -13 14 -21 37 -21 57 l0 32 24 -22 c29 -27 31 -12 2
18 -12 13 -16 24 -10 28 5 4 15 -3 21 -14 6 -11 15 -20 21 -20 6 0 1 12 -10
26 -28 35 -27 52 1 28 l22 -19 -17 28 c-18 28 -11 36 14 15 12 -11 12 -11 1 2
-6 7 -12 21 -12 30 1 12 4 11 15 -4 8 -11 15 -15 15 -10 0 6 -5 15 -12 22 -17
17 -1 27 19 11 17 -13 17 -13 0 7 -19 23 -12 40 10 23 8 -7 13 -8 13 -1 0 5
-7 12 -15 16 -21 8 -19 36 3 37 16 1 16 2 0 6 -21 5 -24 23 -5 23 9 0 9 2 -1
9 -8 4 -12 19 -10 32 3 23 5 22 31 -16 25 -37 27 -47 27 -138 0 -60 -6 -120
-16 -153 -8 -30 -14 -64 -12 -76 7 -46 31 98 35 215 l4 118 -37 52 -36 52 51
-50 51 -49 0 -91z m220 -568 c-1 -453 -5 -748 -11 -759 -5 -10 -14 -18 -19
-18 -9 0 -4 1272 6 1438 4 53 10 90 15 86 6 -3 9 -293 9 -747z m748 716 c-2
-10 -16 -21 -33 -24 -17 -4 -22 -7 -12 -8 10 0 16 -5 12 -11 -3 -5 -13 -7 -23
-4 -12 4 -13 3 -4 -3 19 -14 -21 -98 -67 -140 l-36 -33 28 0 c46 0 46 -28 1
-66 -65 -55 -81 -57 -165 -18 -63 29 -84 33 -144 32 -58 -1 -63 -2 -30 -7 40
-6 40 -7 10 -13 -26 -5 -36 0 -76 37 -25 23 -55 46 -67 49 -19 6 -22 15 -22
62 0 54 0 54 31 54 16 0 53 7 80 16 36 12 59 14 81 8 44 -13 48 -34 6 -35 -27
0 -29 -2 -13 -8 19 -8 18 -9 -8 -22 -39 -18 -17 -29 58 -29 64 0 69 2 162 72
28 21 82 55 120 73 76 39 116 45 111 18z m-810 -69 c19 -6 22 -13 22 -60 0
-54 -6 -62 -44 -55 -23 4 -69 -13 -96 -36 l-30 -25 0 91 0 91 63 0 c34 0 72
-3 85 -6z m-18 -138 c0 -17 -94 -122 -121 -137 -16 -8 -19 -6 -19 16 0 20 5
25 28 26 23 2 24 2 5 6 -32 6 -29 23 5 24 l27 1 -25 8 c-23 7 -23 8 10 10 33
2 33 3 10 10 -23 7 -22 8 10 10 29 1 31 3 15 10 -21 8 -15 13 30 23 11 3 21 5
23 6 1 0 2 -5 2 -13z m158 -1014 c-2 -133 0 -242 3 -242 3 0 11 -12 17 -26 13
-27 29 -24 42 10 6 15 9 4 9 -41 l1 -63 -110 0 -110 0 0 57 c0 56 0 56 20 38
20 -18 21 -18 43 4 l24 21 12 -26 c8 -18 15 -24 22 -17 6 6 10 236 11 639 l1
629 9 -370 c4 -203 7 -479 6 -613z m242 908 c12 -8 9 -10 -12 -10 -15 0 -30 5
-33 10 -8 13 25 13 45 0z m130 -361 c99 -12 155 -42 223 -120 77 -88 109 -151
114 -227 6 -83 -9 -171 -42 -237 -34 -70 -126 -162 -192 -192 -53 -24 -54 -24
-80 -6 -14 10 -35 23 -46 30 -19 11 -19 11 -1 16 11 3 -6 5 -36 5 -30 0 -64
-4 -75 -9 -14 -6 -6 -7 28 -3 30 3 47 1 47 -5 0 -6 6 -11 14 -11 8 0 24 -8 37
-19 l23 -18 -20 -33 c-22 -38 -34 -46 -93 -60 -52 -13 -47 -22 17 -30 38 -4
48 -9 50 -26 4 -30 -51 -53 -82 -34 -11 8 -38 22 -58 32 -48 23 -49 49 -3 74
19 10 35 22 35 26 0 5 -22 8 -50 8 -97 0 -110 19 -110 163 l0 67 38 -1 c125
-4 234 32 298 101 16 16 34 30 41 30 6 0 15 5 19 12 5 7 2 9 -8 5 -25 -9 -10
29 15 41 18 9 19 11 5 11 -12 1 -16 7 -12 19 4 15 3 15 -8 -2 -7 -10 -20 -28
-30 -40 l-16 -21 -26 24 c-14 13 -33 43 -42 67 -11 30 -23 44 -41 49 -36 9
-26 39 14 43 25 3 35 -3 52 -26 12 -17 21 -40 21 -53 0 -32 14 -13 29 39 8 29
20 47 37 54 29 14 31 24 3 31 -11 3 -23 15 -26 27 -5 19 -10 21 -57 15 -74 -9
-256 51 -256 85 0 4 19 2 43 -5 62 -18 187 -25 187 -10 0 23 -46 54 -140 96
-107 47 -121 56 -102 68 8 5 48 -2 95 -16 45 -13 120 -29 167 -34z m-433 -597
c-1 -103 -2 -16 -2 193 0 209 1 293 2 187 2 -106 2 -277 0 -380z m-257 478
c18 -14 21 -20 9 -20 -9 0 -24 9 -34 20 -23 26 -8 26 25 0z m197 -232 c-1 -40
-3 -8 -3 72 0 80 2 112 3 73 2 -40 2 -106 0 -145z m847 151 c9 -13 13 -33 9
-49 -3 -15 0 -31 6 -34 6 -4 11 -19 11 -32 0 -39 -23 -24 -37 24 -6 23 -21 55
-32 71 -27 37 -26 41 3 41 14 0 31 -9 40 -21z m-857 -526 c-2 -37 -3 -9 -3 62
0 72 1 102 3 68 2 -34 2 -93 0 -130z m190 5 c-2 -35 -3 -9 -3 57 0 66 1 94 3
63 2 -32 2 -86 0 -120z m201 144 c2 -8 -11 -12 -39 -12 -43 0 -45 13 -4 23 27
6 38 3 43 -11z m-98 -7 c-7 -9 -29 -15 -51 -15 -28 0 -39 4 -39 15 0 11 12 15
51 15 45 0 50 -2 39 -15z m-450 -12 c0 -14 2 -15 9 -4 5 8 19 12 35 9 14 -3
26 -1 26 3 0 5 16 9 35 9 l35 0 0 -90 c0 -105 8 -101 -127 -69 -136 33 -261
12 -353 -59 -21 -16 -44 -26 -58 -24 -26 4 -20 22 9 22 21 0 26 16 8 22 -7 2
2 19 21 41 17 20 37 34 43 30 6 -4 8 0 4 10 -6 16 18 32 34 21 5 -3 9 2 9 10
0 22 34 38 49 23 10 -9 12 -9 9 3 -2 10 5 15 22 15 14 0 33 9 42 20 15 17 19
18 28 5 7 -12 10 -12 10 -1 0 9 9 12 30 9 17 -3 33 -1 36 4 10 16 44 8 44 -9z
m-380 -237 c0 -5 -41 -76 -44 -76 -1 0 0 18 2 40 3 31 8 40 23 40 10 0 19 -2
19 -4z m750 -96 c0 -6 -47 -10 -120 -10 -73 0 -120 4 -120 10 0 6 47 10 120
10 73 0 120 -4 120 -10z m-220 -37 c0 -3 -8 -30 -17 -60 -14 -44 -21 -53 -40
-53 -28 0 -28 2 -1 67 15 37 27 53 40 53 10 0 18 -3 18 -7z m60 -53 l0 -60
-41 0 c-34 0 -40 3 -35 18 2 9 10 36 17 60 10 34 17 42 36 42 22 0 23 -4 23
-60z m80 0 l0 -60 -35 0 -35 0 0 60 0 60 35 0 35 0 0 -60z m66 8 c10 -29 21
-56 22 -60 2 -4 -15 -8 -37 -8 l-41 0 0 60 c0 51 3 60 18 60 13 0 24 -16 38
-52z m52 -1 c27 -64 27 -67 3 -67 -13 0 -24 16 -40 56 -25 67 -25 64 -3 64 13
0 25 -16 40 -53z m90 -94 c3 -10 -51 -13 -247 -13 -230 0 -264 3 -244 24 4 3
115 5 247 4 181 -2 240 -6 244 -15z m148 -38 c10 -8 38 -15 62 -15 23 0 42 -4
42 -10 0 -7 -173 -10 -500 -10 -327 0 -500 3 -500 10 0 6 19 10 43 10 23 0 51
7 61 15 29 22 763 22 792 0z"/>
<path d="M820 2032 c6 -13 14 -21 18 -18 3 4 -2 14 -12 24 -18 16 -18 16 -6
-6z"/>
<path d="M954 1649 c-9 -15 11 -33 30 -26 9 4 13 13 10 22 -7 17 -30 20 -40 4z"/>
<path d="M1860 2300 c0 -5 7 -10 15 -10 8 0 15 5 15 10 0 6 -7 10 -15 10 -8 0
-15 -4 -15 -10z"/>
<path d="M1838 2273 c6 -2 18 -2 25 0 6 3 1 5 -13 5 -14 0 -19 -2 -12 -5z"/>
<path d="M1820 2250 c0 -5 9 -10 20 -10 11 0 20 5 20 10 0 6 -9 10 -20 10 -11
0 -20 -4 -20 -10z"/>
<path d="M1813 2223 c9 -2 23 -2 30 0 6 3 -1 5 -18 5 -16 0 -22 -2 -12 -5z"/>
<path d="M1793 2203 c9 -2 23 -2 30 0 6 3 -1 5 -18 5 -16 0 -22 -2 -12 -5z"/>
<path d="M1755 2180 c-4 -7 3 -8 22 -4 38 9 42 14 10 14 -14 0 -29 -5 -32 -10z"/>
<path d="M1745 2160 c-30 -8 -30 -8 8 -9 20 0 37 4 37 9 0 11 -2 11 -45 0z"/>
<path d="M1723 2133 c15 -2 37 -2 50 0 12 2 0 4 -28 4 -27 0 -38 -2 -22 -4z"/>
<path d="M1677 2103 c18 -2 50 -2 70 0 21 2 7 4 -32 4 -38 0 -55 -2 -38 -4z"/>
<path d="M1651 2086 c2 -2 27 -6 54 -10 36 -5 46 -4 35 3 -13 10 -99 16 -89 7z"/>
<path d="M1555 1690 c11 -5 27 -9 35 -9 13 -1 13 0 0 9 -8 5 -24 9 -35 9 l-20
0 20 -9z"/>
<path d="M1653 1673 c-22 -8 -14 -23 11 -23 30 0 42 15 20 24 -9 3 -16 6 -17
5 -1 0 -8 -3 -14 -6z"/>
<path d="M1693 1620 c16 -5 35 -14 43 -21 8 -6 14 -8 14 -4 0 15 -35 34 -60
34 -24 -1 -24 -1 3 -9z"/>
<path d="M1821 1594 c0 -11 3 -14 6 -6 3 7 2 16 -1 19 -3 4 -6 -2 -5 -13z"/>
<path d="M1788 1553 c7 -3 16 -2 19 1 4 3 -2 6 -13 5 -11 0 -14 -3 -6 -6z"/>
<path d="M1871 1504 c0 -11 3 -14 6 -6 3 7 2 16 -1 19 -3 4 -6 -2 -5 -13z"/>
<path d="M1900 1511 c0 -5 5 -13 10 -16 6 -3 10 -2 10 4 0 5 -4 13 -10 16 -5
3 -10 2 -10 -4z"/>
<path d="M1840 1441 c0 -5 5 -13 10 -16 6 -3 10 -2 10 4 0 5 -4 13 -10 16 -5
3 -10 2 -10 -4z"/>
<path d="M1890 1443 c0 -4 5 -15 10 -23 8 -13 10 -13 10 2 0 9 -4 20 -10 23
-5 3 -10 3 -10 -2z"/>
<path d="M1803 1405 c0 -22 2 -30 4 -17 2 12 2 30 0 40 -3 9 -5 -1 -4 -23z"/>
<path d="M1940 1435 c0 -5 5 -17 10 -25 5 -8 10 -10 10 -5 0 6 -5 17 -10 25
-5 8 -10 11 -10 5z"/>
<path d="M1840 1385 c0 -8 5 -15 10 -15 6 0 10 7 10 15 0 8 -4 15 -10 15 -5 0
-10 -7 -10 -15z"/>
<path d="M1892 1360 c0 -14 2 -19 5 -12 2 6 2 18 0 25 -3 6 -5 1 -5 -13z"/>
<path d="M1971 1354 c0 -11 3 -14 6 -6 3 7 2 16 -1 19 -3 4 -6 -2 -5 -13z"/>
<path d="M1832 1330 c0 -14 2 -19 5 -12 2 6 2 18 0 25 -3 6 -5 1 -5 -13z"/>
<path d="M1786 1325 c-3 -8 -1 -15 4 -15 6 0 10 7 10 15 0 8 -2 15 -4 15 -2 0
-6 -7 -10 -15z"/>
<path d="M1932 1300 c0 -14 2 -19 5 -12 2 6 2 18 0 25 -3 6 -5 1 -5 -13z"/>
<path d="M1877 1303 c-4 -3 -7 -11 -7 -17 0 -6 5 -5 12 2 6 6 9 14 7 17 -3 3
-9 2 -12 -2z"/>
<path d="M1961 1284 c0 -11 3 -14 6 -6 3 7 2 16 -1 19 -3 4 -6 -2 -5 -13z"/>
<path d="M1845 1250 c-3 -5 -1 -10 4 -10 6 0 11 5 11 10 0 6 -2 10 -4 10 -3 0
-8 -4 -11 -10z"/>
<path d="M1900 1235 c0 -8 2 -15 4 -15 2 0 6 7 10 15 3 8 1 15 -4 15 -6 0 -10
-7 -10 -15z"/>
<path d="M1941 1224 c0 -11 3 -14 6 -6 3 7 2 16 -1 19 -3 4 -6 -2 -5 -13z"/>
<path d="M1775 1209 c-4 -6 -5 -12 -2 -15 2 -3 7 2 10 11 7 17 1 20 -8 4z"/>
<path d="M1826 1204 c-9 -24 -2 -26 12 -4 7 11 8 20 3 20 -5 0 -12 -7 -15 -16z"/>
<path d="M1866 1174 c-10 -25 1 -29 14 -5 6 12 7 21 1 21 -5 0 -12 -7 -15 -16z"/>
<path d="M1915 1159 c-4 -6 -5 -12 -2 -15 2 -3 7 2 10 11 7 17 1 20 -8 4z"/>
<path d="M1776 1144 c-9 -24 -2 -26 12 -4 7 11 8 20 3 20 -5 0 -12 -7 -15 -16z"/>
<path d="M1815 1120 c-10 -11 -14 -20 -8 -20 5 0 18 9 28 20 10 11 14 20 8 20
-5 0 -18 -9 -28 -20z"/>
<path d="M1720 1095 c-7 -8 -8 -15 -2 -15 5 0 15 7 22 15 7 8 8 15 2 15 -5 0
-15 -7 -22 -15z"/>
<path d="M1850 1095 c-20 -24 -6 -28 15 -5 10 11 13 20 8 20 -6 0 -16 -7 -23
-15z"/>
<path d="M1750 1075 c-7 -9 -11 -18 -8 -20 3 -3 11 1 18 10 7 9 11 18 8 20 -3
3 -11 -1 -18 -10z"/>
<path d="M1540 1055 c-14 -8 -46 -14 -72 -15 -26 0 -50 -5 -54 -11 -5 -9 9
-10 52 -4 53 6 114 28 114 40 0 8 -14 5 -40 -10z"/>
<path d="M1865 1050 c-10 -11 -13 -20 -8 -20 13 0 38 29 31 35 -3 3 -13 -4
-23 -15z"/>
<path d="M1650 1050 c-9 -6 -10 -10 -3 -10 6 0 15 5 18 10 8 12 4 12 -15 0z"/>
<path d="M1770 1025 c-7 -8 -8 -15 -2 -15 5 0 15 7 22 15 7 8 8 15 2 15 -5 0
-15 -7 -22 -15z"/>
<path d="M1680 1020 c-8 -5 -12 -11 -10 -14 3 -2 14 2 24 10 22 15 10 19 -14
4z"/>
<path d="M1548 1013 c-16 -2 -28 -8 -28 -13 0 -8 67 4 77 14 7 6 -2 6 -49 -1z"/>
<path d="M1799 979 c-23 -19 -23 -20 -2 -10 12 6 25 16 28 21 10 16 -1 12 -26
-11z"/>
<path d="M1695 980 c-8 -13 5 -13 25 0 13 8 13 10 -2 10 -9 0 -20 -4 -23 -10z"/>
<path d="M1718 943 c6 -2 18 -2 25 0 6 3 1 5 -13 5 -14 0 -19 -2 -12 -5z"/>
<path d="M1407 919 c12 -12 24 -21 27 -18 2 2 -8 13 -22 23 l-27 19 22 -24z"/>
<path d="M940 1050 c0 -11 5 -20 10 -20 6 0 10 9 10 20 0 11 -4 20 -10 20 -5
0 -10 -9 -10 -20z"/>
<path d="M980 1051 c0 -11 5 -23 10 -26 6 -4 10 5 10 19 0 14 -4 26 -10 26 -5
0 -10 -9 -10 -19z"/>
<path d="M1042 1040 c0 -19 2 -27 5 -17 2 9 2 25 0 35 -3 9 -5 1 -5 -18z"/>
<path d="M1076 1043 c10 -40 14 -41 14 -5 0 18 -5 32 -10 32 -6 0 -8 -11 -4
-27z"/>
<path d="M860 1040 c0 -11 2 -20 4 -20 2 0 6 9 9 20 3 11 1 20 -4 20 -5 0 -9
-9 -9 -20z"/>
<path d="M900 1045 c0 -8 5 -15 10 -15 6 0 10 7 10 15 0 8 -4 15 -10 15 -5 0
-10 -7 -10 -15z"/>
<path d="M821 1034 c0 -11 3 -14 6 -6 3 7 2 16 -1 19 -3 4 -6 -2 -5 -13z"/>
<path d="M780 1015 c0 -8 2 -15 4 -15 2 0 6 7 10 15 3 8 1 15 -4 15 -6 0 -10
-7 -10 -15z"/>
<path d="M741 1004 c0 -11 3 -14 6 -6 3 7 2 16 -1 19 -3 4 -6 -2 -5 -13z"/>
<path d="M701 974 c0 -11 3 -14 6 -6 3 7 2 16 -1 19 -3 4 -6 -2 -5 -13z"/>
<path d="M671 954 c0 -11 3 -14 6 -6 3 7 2 16 -1 19 -3 4 -6 -2 -5 -13z"/>
<path d="M641 934 c0 -11 3 -14 6 -6 3 7 2 16 -1 19 -3 4 -6 -2 -5 -13z"/>
</g>
</svg>
