<?xml version="1.0" standalone="no"?>
<!DOCTYPE svg PUBLIC "-//W3C//DTD SVG 20010904//EN"
 "http://www.w3.org/TR/2001/REC-SVG-20010904/DTD/svg10.dtd">
<svg version="1.0" xmlns="http://www.w3.org/2000/svg"
 width="330.000000pt" height="256.000000pt" viewBox="0 0 330.000000 256.000000"
 preserveAspectRatio="xMidYMid meet">

<g transform="translate(0.000000,256.000000) scale(0.100000,-0.100000)"
fill="#000000" stroke="none">
<path d="M620 2542 c-19 -15 -37 -78 -111 -398 -49 -208 -86 -387 -83 -396 4
-15 17 -18 65 -18 32 0 59 -3 59 -7 -1 -5 -30 -30 -66 -58 -85 -65 -258 -243
-316 -325 -51 -72 -106 -178 -133 -255 -27 -75 -31 -222 -10 -301 52 -191 242
-341 528 -414 148 -37 153 -38 160 -1 3 16 9 40 12 53 6 23 3 26 -41 37 -212
54 -399 182 -471 326 -124 243 -33 532 262 832 l111 113 198 0 c117 0 205 -4
217 -10 10 -6 19 -21 19 -33 0 -51 -123 -554 -146 -593 -28 -50 -98 -98 -174
-122 -55 -17 -52 -17 295 -20 331 -2 351 -1 365 16 9 10 55 191 104 401 69
296 86 385 77 394 -8 8 -94 13 -293 17 -250 4 -282 7 -292 22 -8 13 -1 54 25
168 42 176 60 167 -145 74 -77 -35 -141 -62 -143 -60 -2 2 72 42 165 89 l168
86 37 163 c21 90 40 172 43 184 3 13 -1 28 -11 38 -14 14 -45 16 -235 16 -196
0 -220 -2 -240 -18z"/>
<path d="M2425 689 c-343 -156 -695 -246 -1107 -284 -64 -6 -67 -8 -73 -36 -4
-17 -5 -33 -2 -36 9 -8 165 15 327 47 281 56 550 147 818 275 83 41 152 76
152 79 0 7 13 13 -115 -45z"/>
</g>
</svg>
